%TF.GenerationSoftware,KiCad,Pcbnew,(5.1.9)-1*%
%TF.CreationDate,2022-01-13T14:55:30+01:00*%
%TF.ProjectId,Equalizzatore Prati,45717561-6c69-47a7-9a61-746f72652050,rev?*%
%TF.SameCoordinates,Original*%
%TF.FileFunction,Copper,L1,Top*%
%TF.FilePolarity,Positive*%
%FSLAX46Y46*%
G04 Gerber Fmt 4.6, Leading zero omitted, Abs format (unit mm)*
G04 Created by KiCad (PCBNEW (5.1.9)-1) date 2022-01-13 14:55:30*
%MOMM*%
%LPD*%
G01*
G04 APERTURE LIST*
%TA.AperFunction,NonConductor*%
%ADD10C,0.300000*%
%TD*%
%TA.AperFunction,ComponentPad*%
%ADD11R,2.500000X3.500000*%
%TD*%
%TA.AperFunction,ComponentPad*%
%ADD12O,2.500000X3.500000*%
%TD*%
%TA.AperFunction,ComponentPad*%
%ADD13R,3.500000X2.000000*%
%TD*%
%TA.AperFunction,ComponentPad*%
%ADD14O,3.500000X2.500000*%
%TD*%
%TA.AperFunction,ComponentPad*%
%ADD15O,2.500000X3.000000*%
%TD*%
%TA.AperFunction,ComponentPad*%
%ADD16O,2.500000X1.900000*%
%TD*%
%TA.AperFunction,ComponentPad*%
%ADD17C,2.500000*%
%TD*%
%TA.AperFunction,ComponentPad*%
%ADD18O,2.500000X1.800000*%
%TD*%
%TA.AperFunction,ComponentPad*%
%ADD19O,2.500000X1.600000*%
%TD*%
%TA.AperFunction,ComponentPad*%
%ADD20O,4.000000X3.000000*%
%TD*%
%TA.AperFunction,ComponentPad*%
%ADD21R,3.000000X3.000000*%
%TD*%
%TA.AperFunction,ComponentPad*%
%ADD22C,3.000000*%
%TD*%
%TA.AperFunction,ComponentPad*%
%ADD23C,4.000000*%
%TD*%
%TA.AperFunction,ComponentPad*%
%ADD24O,3.000000X1.600000*%
%TD*%
%TA.AperFunction,ComponentPad*%
%ADD25O,1.600000X2.500000*%
%TD*%
%TA.AperFunction,ComponentPad*%
%ADD26R,3.500000X1.800000*%
%TD*%
%TA.AperFunction,ComponentPad*%
%ADD27O,3.500000X1.800000*%
%TD*%
%TA.AperFunction,ViaPad*%
%ADD28C,3.100000*%
%TD*%
%TA.AperFunction,ViaPad*%
%ADD29C,2.000000*%
%TD*%
%TA.AperFunction,Conductor*%
%ADD30C,1.000000*%
%TD*%
G04 APERTURE END LIST*
D10*
X104444285Y-83458857D02*
X104944285Y-83458857D01*
X105158571Y-84244571D02*
X104444285Y-84244571D01*
X104444285Y-82744571D01*
X105158571Y-82744571D01*
X106444285Y-83244571D02*
X106444285Y-84744571D01*
X106444285Y-84173142D02*
X106301428Y-84244571D01*
X106015714Y-84244571D01*
X105872857Y-84173142D01*
X105801428Y-84101714D01*
X105730000Y-83958857D01*
X105730000Y-83530285D01*
X105801428Y-83387428D01*
X105872857Y-83316000D01*
X106015714Y-83244571D01*
X106301428Y-83244571D01*
X106444285Y-83316000D01*
X107801428Y-83244571D02*
X107801428Y-84244571D01*
X107158571Y-83244571D02*
X107158571Y-84030285D01*
X107230000Y-84173142D01*
X107372857Y-84244571D01*
X107587142Y-84244571D01*
X107730000Y-84173142D01*
X107801428Y-84101714D01*
X109158571Y-84244571D02*
X109158571Y-83458857D01*
X109087142Y-83316000D01*
X108944285Y-83244571D01*
X108658571Y-83244571D01*
X108515714Y-83316000D01*
X109158571Y-84173142D02*
X109015714Y-84244571D01*
X108658571Y-84244571D01*
X108515714Y-84173142D01*
X108444285Y-84030285D01*
X108444285Y-83887428D01*
X108515714Y-83744571D01*
X108658571Y-83673142D01*
X109015714Y-83673142D01*
X109158571Y-83601714D01*
X110087142Y-84244571D02*
X109944285Y-84173142D01*
X109872857Y-84030285D01*
X109872857Y-82744571D01*
X110658571Y-84244571D02*
X110658571Y-83244571D01*
X110658571Y-82744571D02*
X110587142Y-82816000D01*
X110658571Y-82887428D01*
X110730000Y-82816000D01*
X110658571Y-82744571D01*
X110658571Y-82887428D01*
X111230000Y-83244571D02*
X112015714Y-83244571D01*
X111230000Y-84244571D01*
X112015714Y-84244571D01*
X112444285Y-83244571D02*
X113230000Y-83244571D01*
X112444285Y-84244571D01*
X113230000Y-84244571D01*
X114444285Y-84244571D02*
X114444285Y-83458857D01*
X114372857Y-83316000D01*
X114230000Y-83244571D01*
X113944285Y-83244571D01*
X113801428Y-83316000D01*
X114444285Y-84173142D02*
X114301428Y-84244571D01*
X113944285Y-84244571D01*
X113801428Y-84173142D01*
X113730000Y-84030285D01*
X113730000Y-83887428D01*
X113801428Y-83744571D01*
X113944285Y-83673142D01*
X114301428Y-83673142D01*
X114444285Y-83601714D01*
X114944285Y-83244571D02*
X115515714Y-83244571D01*
X115158571Y-82744571D02*
X115158571Y-84030285D01*
X115230000Y-84173142D01*
X115372857Y-84244571D01*
X115515714Y-84244571D01*
X116230000Y-84244571D02*
X116087142Y-84173142D01*
X116015714Y-84101714D01*
X115944285Y-83958857D01*
X115944285Y-83530285D01*
X116015714Y-83387428D01*
X116087142Y-83316000D01*
X116230000Y-83244571D01*
X116444285Y-83244571D01*
X116587142Y-83316000D01*
X116658571Y-83387428D01*
X116730000Y-83530285D01*
X116730000Y-83958857D01*
X116658571Y-84101714D01*
X116587142Y-84173142D01*
X116444285Y-84244571D01*
X116230000Y-84244571D01*
X117372857Y-84244571D02*
X117372857Y-83244571D01*
X117372857Y-83530285D02*
X117444285Y-83387428D01*
X117515714Y-83316000D01*
X117658571Y-83244571D01*
X117801428Y-83244571D01*
X118872857Y-84173142D02*
X118730000Y-84244571D01*
X118444285Y-84244571D01*
X118301428Y-84173142D01*
X118230000Y-84030285D01*
X118230000Y-83458857D01*
X118301428Y-83316000D01*
X118444285Y-83244571D01*
X118730000Y-83244571D01*
X118872857Y-83316000D01*
X118944285Y-83458857D01*
X118944285Y-83601714D01*
X118230000Y-83744571D01*
X121444285Y-82744571D02*
X120730000Y-82744571D01*
X120658571Y-83458857D01*
X120730000Y-83387428D01*
X120872857Y-83316000D01*
X121230000Y-83316000D01*
X121372857Y-83387428D01*
X121444285Y-83458857D01*
X121515714Y-83601714D01*
X121515714Y-83958857D01*
X121444285Y-84101714D01*
X121372857Y-84173142D01*
X121230000Y-84244571D01*
X120872857Y-84244571D01*
X120730000Y-84173142D01*
X120658571Y-84101714D01*
X123301428Y-84244571D02*
X123301428Y-82744571D01*
X123301428Y-83316000D02*
X123444285Y-83244571D01*
X123730000Y-83244571D01*
X123872857Y-83316000D01*
X123944285Y-83387428D01*
X124015714Y-83530285D01*
X124015714Y-83958857D01*
X123944285Y-84101714D01*
X123872857Y-84173142D01*
X123730000Y-84244571D01*
X123444285Y-84244571D01*
X123301428Y-84173142D01*
X125301428Y-84244571D02*
X125301428Y-83458857D01*
X125230000Y-83316000D01*
X125087142Y-83244571D01*
X124801428Y-83244571D01*
X124658571Y-83316000D01*
X125301428Y-84173142D02*
X125158571Y-84244571D01*
X124801428Y-84244571D01*
X124658571Y-84173142D01*
X124587142Y-84030285D01*
X124587142Y-83887428D01*
X124658571Y-83744571D01*
X124801428Y-83673142D01*
X125158571Y-83673142D01*
X125301428Y-83601714D01*
X126015714Y-83244571D02*
X126015714Y-84244571D01*
X126015714Y-83387428D02*
X126087142Y-83316000D01*
X126230000Y-83244571D01*
X126444285Y-83244571D01*
X126587142Y-83316000D01*
X126658571Y-83458857D01*
X126658571Y-84244571D01*
X128015714Y-84244571D02*
X128015714Y-82744571D01*
X128015714Y-84173142D02*
X127872857Y-84244571D01*
X127587142Y-84244571D01*
X127444285Y-84173142D01*
X127372857Y-84101714D01*
X127301428Y-83958857D01*
X127301428Y-83530285D01*
X127372857Y-83387428D01*
X127444285Y-83316000D01*
X127587142Y-83244571D01*
X127872857Y-83244571D01*
X128015714Y-83316000D01*
X129301428Y-84173142D02*
X129158571Y-84244571D01*
X128872857Y-84244571D01*
X128730000Y-84173142D01*
X128658571Y-84030285D01*
X128658571Y-83458857D01*
X128730000Y-83316000D01*
X128872857Y-83244571D01*
X129158571Y-83244571D01*
X129301428Y-83316000D01*
X129372857Y-83458857D01*
X129372857Y-83601714D01*
X128658571Y-83744571D01*
X133015714Y-84244571D02*
X132301428Y-84244571D01*
X132301428Y-82744571D01*
X134158571Y-83244571D02*
X134158571Y-84244571D01*
X133515714Y-83244571D02*
X133515714Y-84030285D01*
X133587142Y-84173142D01*
X133730000Y-84244571D01*
X133944285Y-84244571D01*
X134087142Y-84173142D01*
X134158571Y-84101714D01*
X135515714Y-84173142D02*
X135372857Y-84244571D01*
X135087142Y-84244571D01*
X134944285Y-84173142D01*
X134872857Y-84101714D01*
X134801428Y-83958857D01*
X134801428Y-83530285D01*
X134872857Y-83387428D01*
X134944285Y-83316000D01*
X135087142Y-83244571D01*
X135372857Y-83244571D01*
X135515714Y-83316000D01*
X136801428Y-84244571D02*
X136801428Y-83458857D01*
X136730000Y-83316000D01*
X136587142Y-83244571D01*
X136301428Y-83244571D01*
X136158571Y-83316000D01*
X136801428Y-84173142D02*
X136658571Y-84244571D01*
X136301428Y-84244571D01*
X136158571Y-84173142D01*
X136087142Y-84030285D01*
X136087142Y-83887428D01*
X136158571Y-83744571D01*
X136301428Y-83673142D01*
X136658571Y-83673142D01*
X136801428Y-83601714D01*
X137444285Y-84173142D02*
X137587142Y-84244571D01*
X137872857Y-84244571D01*
X138015714Y-84173142D01*
X138087142Y-84030285D01*
X138087142Y-83958857D01*
X138015714Y-83816000D01*
X137872857Y-83744571D01*
X137658571Y-83744571D01*
X137515714Y-83673142D01*
X137444285Y-83530285D01*
X137444285Y-83458857D01*
X137515714Y-83316000D01*
X137658571Y-83244571D01*
X137872857Y-83244571D01*
X138015714Y-83316000D01*
X139872857Y-84244571D02*
X139872857Y-82744571D01*
X140444285Y-82744571D01*
X140587142Y-82816000D01*
X140658571Y-82887428D01*
X140730000Y-83030285D01*
X140730000Y-83244571D01*
X140658571Y-83387428D01*
X140587142Y-83458857D01*
X140444285Y-83530285D01*
X139872857Y-83530285D01*
X141372857Y-84244571D02*
X141372857Y-83244571D01*
X141372857Y-83530285D02*
X141444285Y-83387428D01*
X141515714Y-83316000D01*
X141658571Y-83244571D01*
X141801428Y-83244571D01*
X142944285Y-84244571D02*
X142944285Y-83458857D01*
X142872857Y-83316000D01*
X142730000Y-83244571D01*
X142444285Y-83244571D01*
X142301428Y-83316000D01*
X142944285Y-84173142D02*
X142801428Y-84244571D01*
X142444285Y-84244571D01*
X142301428Y-84173142D01*
X142230000Y-84030285D01*
X142230000Y-83887428D01*
X142301428Y-83744571D01*
X142444285Y-83673142D01*
X142801428Y-83673142D01*
X142944285Y-83601714D01*
X143444285Y-83244571D02*
X144015714Y-83244571D01*
X143658571Y-82744571D02*
X143658571Y-84030285D01*
X143730000Y-84173142D01*
X143872857Y-84244571D01*
X144015714Y-84244571D01*
X144515714Y-84244571D02*
X144515714Y-83244571D01*
X144515714Y-82744571D02*
X144444285Y-82816000D01*
X144515714Y-82887428D01*
X144587142Y-82816000D01*
X144515714Y-82744571D01*
X144515714Y-82887428D01*
X147587142Y-84244571D02*
X147515714Y-84244571D01*
X147372857Y-84173142D01*
X147158571Y-83958857D01*
X146801428Y-83530285D01*
X146658571Y-83316000D01*
X146587142Y-83101714D01*
X146587142Y-82958857D01*
X146658571Y-82816000D01*
X146801428Y-82744571D01*
X146872857Y-82744571D01*
X147015714Y-82816000D01*
X147087142Y-82958857D01*
X147087142Y-83030285D01*
X147015714Y-83173142D01*
X146944285Y-83244571D01*
X146515714Y-83530285D01*
X146444285Y-83601714D01*
X146372857Y-83744571D01*
X146372857Y-83958857D01*
X146444285Y-84101714D01*
X146515714Y-84173142D01*
X146658571Y-84244571D01*
X146872857Y-84244571D01*
X147015714Y-84173142D01*
X147087142Y-84101714D01*
X147301428Y-83816000D01*
X147372857Y-83601714D01*
X147372857Y-83458857D01*
X150087142Y-84244571D02*
X149372857Y-84244571D01*
X149372857Y-82744571D01*
X150801428Y-84244571D02*
X150658571Y-84173142D01*
X150587142Y-84101714D01*
X150515714Y-83958857D01*
X150515714Y-83530285D01*
X150587142Y-83387428D01*
X150658571Y-83316000D01*
X150801428Y-83244571D01*
X151015714Y-83244571D01*
X151158571Y-83316000D01*
X151230000Y-83387428D01*
X151301428Y-83530285D01*
X151301428Y-83958857D01*
X151230000Y-84101714D01*
X151158571Y-84173142D01*
X151015714Y-84244571D01*
X150801428Y-84244571D01*
X151944285Y-84244571D02*
X151944285Y-83244571D01*
X151944285Y-83530285D02*
X152015714Y-83387428D01*
X152087142Y-83316000D01*
X152230000Y-83244571D01*
X152372857Y-83244571D01*
X153444285Y-84173142D02*
X153301428Y-84244571D01*
X153015714Y-84244571D01*
X152872857Y-84173142D01*
X152801428Y-84030285D01*
X152801428Y-83458857D01*
X152872857Y-83316000D01*
X153015714Y-83244571D01*
X153301428Y-83244571D01*
X153444285Y-83316000D01*
X153515714Y-83458857D01*
X153515714Y-83601714D01*
X152801428Y-83744571D01*
X154158571Y-83244571D02*
X154158571Y-84244571D01*
X154158571Y-83387428D02*
X154230000Y-83316000D01*
X154372857Y-83244571D01*
X154587142Y-83244571D01*
X154730000Y-83316000D01*
X154801428Y-83458857D01*
X154801428Y-84244571D01*
X155372857Y-83244571D02*
X156158571Y-83244571D01*
X155372857Y-84244571D01*
X156158571Y-84244571D01*
X156944285Y-84244571D02*
X156801428Y-84173142D01*
X156730000Y-84101714D01*
X156658571Y-83958857D01*
X156658571Y-83530285D01*
X156730000Y-83387428D01*
X156801428Y-83316000D01*
X156944285Y-83244571D01*
X157158571Y-83244571D01*
X157301428Y-83316000D01*
X157372857Y-83387428D01*
X157444285Y-83530285D01*
X157444285Y-83958857D01*
X157372857Y-84101714D01*
X157301428Y-84173142D01*
X157158571Y-84244571D01*
X156944285Y-84244571D01*
X159158571Y-84173142D02*
X159372857Y-84244571D01*
X159730000Y-84244571D01*
X159872857Y-84173142D01*
X159944285Y-84101714D01*
X160015714Y-83958857D01*
X160015714Y-83816000D01*
X159944285Y-83673142D01*
X159872857Y-83601714D01*
X159730000Y-83530285D01*
X159444285Y-83458857D01*
X159301428Y-83387428D01*
X159230000Y-83316000D01*
X159158571Y-83173142D01*
X159158571Y-83030285D01*
X159230000Y-82887428D01*
X159301428Y-82816000D01*
X159444285Y-82744571D01*
X159801428Y-82744571D01*
X160015714Y-82816000D01*
X161301428Y-84244571D02*
X161301428Y-83458857D01*
X161230000Y-83316000D01*
X161087142Y-83244571D01*
X160801428Y-83244571D01*
X160658571Y-83316000D01*
X161301428Y-84173142D02*
X161158571Y-84244571D01*
X160801428Y-84244571D01*
X160658571Y-84173142D01*
X160587142Y-84030285D01*
X160587142Y-83887428D01*
X160658571Y-83744571D01*
X160801428Y-83673142D01*
X161158571Y-83673142D01*
X161301428Y-83601714D01*
X162015714Y-84244571D02*
X162015714Y-83244571D01*
X162015714Y-83530285D02*
X162087142Y-83387428D01*
X162158571Y-83316000D01*
X162301428Y-83244571D01*
X162444285Y-83244571D01*
X162730000Y-83244571D02*
X163301428Y-83244571D01*
X162944285Y-82744571D02*
X162944285Y-84030285D01*
X163015714Y-84173142D01*
X163158571Y-84244571D01*
X163301428Y-84244571D01*
X164015714Y-84244571D02*
X163872857Y-84173142D01*
X163801428Y-84101714D01*
X163730000Y-83958857D01*
X163730000Y-83530285D01*
X163801428Y-83387428D01*
X163872857Y-83316000D01*
X164015714Y-83244571D01*
X164230000Y-83244571D01*
X164372857Y-83316000D01*
X164444285Y-83387428D01*
X164515714Y-83530285D01*
X164515714Y-83958857D01*
X164444285Y-84101714D01*
X164372857Y-84173142D01*
X164230000Y-84244571D01*
X164015714Y-84244571D01*
X165158571Y-83244571D02*
X165158571Y-84244571D01*
X165158571Y-83387428D02*
X165230000Y-83316000D01*
X165372857Y-83244571D01*
X165587142Y-83244571D01*
X165730000Y-83316000D01*
X165801428Y-83458857D01*
X165801428Y-84244571D01*
X166515714Y-84244571D02*
X166515714Y-83244571D01*
X166515714Y-82744571D02*
X166444285Y-82816000D01*
X166515714Y-82887428D01*
X166587142Y-82816000D01*
X166515714Y-82744571D01*
X166515714Y-82887428D01*
X169587142Y-84244571D02*
X169515714Y-84244571D01*
X169372857Y-84173142D01*
X169158571Y-83958857D01*
X168801428Y-83530285D01*
X168658571Y-83316000D01*
X168587142Y-83101714D01*
X168587142Y-82958857D01*
X168658571Y-82816000D01*
X168801428Y-82744571D01*
X168872857Y-82744571D01*
X169015714Y-82816000D01*
X169087142Y-82958857D01*
X169087142Y-83030285D01*
X169015714Y-83173142D01*
X168944285Y-83244571D01*
X168515714Y-83530285D01*
X168444285Y-83601714D01*
X168372857Y-83744571D01*
X168372857Y-83958857D01*
X168444285Y-84101714D01*
X168515714Y-84173142D01*
X168658571Y-84244571D01*
X168872857Y-84244571D01*
X169015714Y-84173142D01*
X169087142Y-84101714D01*
X169301428Y-83816000D01*
X169372857Y-83601714D01*
X169372857Y-83458857D01*
X171872857Y-83458857D02*
X171372857Y-83458857D01*
X171372857Y-84244571D02*
X171372857Y-82744571D01*
X172087142Y-82744571D01*
X173230000Y-84173142D02*
X173087142Y-84244571D01*
X172801428Y-84244571D01*
X172658571Y-84173142D01*
X172587142Y-84030285D01*
X172587142Y-83458857D01*
X172658571Y-83316000D01*
X172801428Y-83244571D01*
X173087142Y-83244571D01*
X173230000Y-83316000D01*
X173301428Y-83458857D01*
X173301428Y-83601714D01*
X172587142Y-83744571D01*
X174587142Y-84244571D02*
X174587142Y-82744571D01*
X174587142Y-84173142D02*
X174444285Y-84244571D01*
X174158571Y-84244571D01*
X174015714Y-84173142D01*
X173944285Y-84101714D01*
X173872857Y-83958857D01*
X173872857Y-83530285D01*
X173944285Y-83387428D01*
X174015714Y-83316000D01*
X174158571Y-83244571D01*
X174444285Y-83244571D01*
X174587142Y-83316000D01*
X175872857Y-84173142D02*
X175730000Y-84244571D01*
X175444285Y-84244571D01*
X175301428Y-84173142D01*
X175230000Y-84030285D01*
X175230000Y-83458857D01*
X175301428Y-83316000D01*
X175444285Y-83244571D01*
X175730000Y-83244571D01*
X175872857Y-83316000D01*
X175944285Y-83458857D01*
X175944285Y-83601714D01*
X175230000Y-83744571D01*
X176587142Y-84244571D02*
X176587142Y-83244571D01*
X176587142Y-83530285D02*
X176658571Y-83387428D01*
X176730000Y-83316000D01*
X176872857Y-83244571D01*
X177015714Y-83244571D01*
X177515714Y-84244571D02*
X177515714Y-83244571D01*
X177515714Y-82744571D02*
X177444285Y-82816000D01*
X177515714Y-82887428D01*
X177587142Y-82816000D01*
X177515714Y-82744571D01*
X177515714Y-82887428D01*
X178872857Y-84173142D02*
X178730000Y-84244571D01*
X178444285Y-84244571D01*
X178301428Y-84173142D01*
X178230000Y-84101714D01*
X178158571Y-83958857D01*
X178158571Y-83530285D01*
X178230000Y-83387428D01*
X178301428Y-83316000D01*
X178444285Y-83244571D01*
X178730000Y-83244571D01*
X178872857Y-83316000D01*
X179730000Y-84244571D02*
X179587142Y-84173142D01*
X179515714Y-84101714D01*
X179444285Y-83958857D01*
X179444285Y-83530285D01*
X179515714Y-83387428D01*
X179587142Y-83316000D01*
X179730000Y-83244571D01*
X179944285Y-83244571D01*
X180087142Y-83316000D01*
X180158571Y-83387428D01*
X180230000Y-83530285D01*
X180230000Y-83958857D01*
X180158571Y-84101714D01*
X180087142Y-84173142D01*
X179944285Y-84244571D01*
X179730000Y-84244571D01*
X182872857Y-84101714D02*
X182801428Y-84173142D01*
X182587142Y-84244571D01*
X182444285Y-84244571D01*
X182230000Y-84173142D01*
X182087142Y-84030285D01*
X182015714Y-83887428D01*
X181944285Y-83601714D01*
X181944285Y-83387428D01*
X182015714Y-83101714D01*
X182087142Y-82958857D01*
X182230000Y-82816000D01*
X182444285Y-82744571D01*
X182587142Y-82744571D01*
X182801428Y-82816000D01*
X182872857Y-82887428D01*
X183730000Y-84244571D02*
X183587142Y-84173142D01*
X183515714Y-84101714D01*
X183444285Y-83958857D01*
X183444285Y-83530285D01*
X183515714Y-83387428D01*
X183587142Y-83316000D01*
X183730000Y-83244571D01*
X183944285Y-83244571D01*
X184087142Y-83316000D01*
X184158571Y-83387428D01*
X184230000Y-83530285D01*
X184230000Y-83958857D01*
X184158571Y-84101714D01*
X184087142Y-84173142D01*
X183944285Y-84244571D01*
X183730000Y-84244571D01*
X184872857Y-84244571D02*
X184872857Y-83244571D01*
X184872857Y-83530285D02*
X184944285Y-83387428D01*
X185015714Y-83316000D01*
X185158571Y-83244571D01*
X185301428Y-83244571D01*
X185658571Y-83244571D02*
X186015714Y-84244571D01*
X186372857Y-83244571D01*
X186944285Y-84244571D02*
X186944285Y-83244571D01*
X186944285Y-82744571D02*
X186872857Y-82816000D01*
X186944285Y-82887428D01*
X187015714Y-82816000D01*
X186944285Y-82744571D01*
X186944285Y-82887428D01*
X187658571Y-83244571D02*
X187658571Y-84244571D01*
X187658571Y-83387428D02*
X187730000Y-83316000D01*
X187872857Y-83244571D01*
X188087142Y-83244571D01*
X188230000Y-83316000D01*
X188301428Y-83458857D01*
X188301428Y-84244571D01*
X189015714Y-84244571D02*
X189015714Y-83244571D01*
X189015714Y-82744571D02*
X188944285Y-82816000D01*
X189015714Y-82887428D01*
X189087142Y-82816000D01*
X189015714Y-82744571D01*
X189015714Y-82887428D01*
X192087142Y-84244571D02*
X192015714Y-84244571D01*
X191872857Y-84173142D01*
X191658571Y-83958857D01*
X191301428Y-83530285D01*
X191158571Y-83316000D01*
X191087142Y-83101714D01*
X191087142Y-82958857D01*
X191158571Y-82816000D01*
X191301428Y-82744571D01*
X191372857Y-82744571D01*
X191515714Y-82816000D01*
X191587142Y-82958857D01*
X191587142Y-83030285D01*
X191515714Y-83173142D01*
X191444285Y-83244571D01*
X191015714Y-83530285D01*
X190944285Y-83601714D01*
X190872857Y-83744571D01*
X190872857Y-83958857D01*
X190944285Y-84101714D01*
X191015714Y-84173142D01*
X191158571Y-84244571D01*
X191372857Y-84244571D01*
X191515714Y-84173142D01*
X191587142Y-84101714D01*
X191801428Y-83816000D01*
X191872857Y-83601714D01*
X191872857Y-83458857D01*
X194587142Y-84244571D02*
X193872857Y-84244571D01*
X193872857Y-82744571D01*
X195730000Y-83244571D02*
X195730000Y-84244571D01*
X195087142Y-83244571D02*
X195087142Y-84030285D01*
X195158571Y-84173142D01*
X195301428Y-84244571D01*
X195515714Y-84244571D01*
X195658571Y-84173142D01*
X195730000Y-84101714D01*
X197087142Y-84173142D02*
X196944285Y-84244571D01*
X196658571Y-84244571D01*
X196515714Y-84173142D01*
X196444285Y-84101714D01*
X196372857Y-83958857D01*
X196372857Y-83530285D01*
X196444285Y-83387428D01*
X196515714Y-83316000D01*
X196658571Y-83244571D01*
X196944285Y-83244571D01*
X197087142Y-83316000D01*
X198372857Y-84244571D02*
X198372857Y-83458857D01*
X198301428Y-83316000D01*
X198158571Y-83244571D01*
X197872857Y-83244571D01*
X197730000Y-83316000D01*
X198372857Y-84173142D02*
X198230000Y-84244571D01*
X197872857Y-84244571D01*
X197730000Y-84173142D01*
X197658571Y-84030285D01*
X197658571Y-83887428D01*
X197730000Y-83744571D01*
X197872857Y-83673142D01*
X198230000Y-83673142D01*
X198372857Y-83601714D01*
X200015714Y-82744571D02*
X200872857Y-82744571D01*
X200444285Y-84244571D02*
X200444285Y-82744571D01*
X201372857Y-84244571D02*
X201372857Y-83244571D01*
X201372857Y-83530285D02*
X201444285Y-83387428D01*
X201515714Y-83316000D01*
X201658571Y-83244571D01*
X201801428Y-83244571D01*
X202944285Y-84244571D02*
X202944285Y-83458857D01*
X202872857Y-83316000D01*
X202730000Y-83244571D01*
X202444285Y-83244571D01*
X202301428Y-83316000D01*
X202944285Y-84173142D02*
X202801428Y-84244571D01*
X202444285Y-84244571D01*
X202301428Y-84173142D01*
X202230000Y-84030285D01*
X202230000Y-83887428D01*
X202301428Y-83744571D01*
X202444285Y-83673142D01*
X202801428Y-83673142D01*
X202944285Y-83601714D01*
X203515714Y-83244571D02*
X203872857Y-84244571D01*
X204230000Y-83244571D01*
X205372857Y-84173142D02*
X205230000Y-84244571D01*
X204944285Y-84244571D01*
X204801428Y-84173142D01*
X204730000Y-84030285D01*
X204730000Y-83458857D01*
X204801428Y-83316000D01*
X204944285Y-83244571D01*
X205230000Y-83244571D01*
X205372857Y-83316000D01*
X205444285Y-83458857D01*
X205444285Y-83601714D01*
X204730000Y-83744571D01*
X206087142Y-84244571D02*
X206087142Y-83244571D01*
X206087142Y-83530285D02*
X206158571Y-83387428D01*
X206230000Y-83316000D01*
X206372857Y-83244571D01*
X206515714Y-83244571D01*
X206944285Y-84173142D02*
X207087142Y-84244571D01*
X207372857Y-84244571D01*
X207515714Y-84173142D01*
X207587142Y-84030285D01*
X207587142Y-83958857D01*
X207515714Y-83816000D01*
X207372857Y-83744571D01*
X207158571Y-83744571D01*
X207015714Y-83673142D01*
X206944285Y-83530285D01*
X206944285Y-83458857D01*
X207015714Y-83316000D01*
X207158571Y-83244571D01*
X207372857Y-83244571D01*
X207515714Y-83316000D01*
X208872857Y-84244571D02*
X208872857Y-83458857D01*
X208801428Y-83316000D01*
X208658571Y-83244571D01*
X208372857Y-83244571D01*
X208230000Y-83316000D01*
X208872857Y-84173142D02*
X208730000Y-84244571D01*
X208372857Y-84244571D01*
X208230000Y-84173142D01*
X208158571Y-84030285D01*
X208158571Y-83887428D01*
X208230000Y-83744571D01*
X208372857Y-83673142D01*
X208730000Y-83673142D01*
X208872857Y-83601714D01*
X209587142Y-84244571D02*
X209587142Y-83244571D01*
X209587142Y-83530285D02*
X209658571Y-83387428D01*
X209730000Y-83316000D01*
X209872857Y-83244571D01*
X210015714Y-83244571D01*
X210515714Y-84244571D02*
X210515714Y-83244571D01*
X210515714Y-82744571D02*
X210444285Y-82816000D01*
X210515714Y-82887428D01*
X210587142Y-82816000D01*
X210515714Y-82744571D01*
X210515714Y-82887428D01*
X194500571Y-89515142D02*
X195643428Y-89515142D01*
X201946285Y-95166571D02*
X201089142Y-95166571D01*
X201517714Y-95166571D02*
X201517714Y-93666571D01*
X201374857Y-93880857D01*
X201232000Y-94023714D01*
X201089142Y-94095142D01*
X202517714Y-93809428D02*
X202589142Y-93738000D01*
X202732000Y-93666571D01*
X203089142Y-93666571D01*
X203232000Y-93738000D01*
X203303428Y-93809428D01*
X203374857Y-93952285D01*
X203374857Y-94095142D01*
X203303428Y-94309428D01*
X202446285Y-95166571D01*
X203374857Y-95166571D01*
X204017714Y-94595142D02*
X205160571Y-94595142D01*
X205732000Y-93666571D02*
X206660571Y-93666571D01*
X206160571Y-94238000D01*
X206374857Y-94238000D01*
X206517714Y-94309428D01*
X206589142Y-94380857D01*
X206660571Y-94523714D01*
X206660571Y-94880857D01*
X206589142Y-95023714D01*
X206517714Y-95095142D01*
X206374857Y-95166571D01*
X205946285Y-95166571D01*
X205803428Y-95095142D01*
X205732000Y-95023714D01*
X207589142Y-93666571D02*
X207732000Y-93666571D01*
X207874857Y-93738000D01*
X207946285Y-93809428D01*
X208017714Y-93952285D01*
X208089142Y-94238000D01*
X208089142Y-94595142D01*
X208017714Y-94880857D01*
X207946285Y-95023714D01*
X207874857Y-95095142D01*
X207732000Y-95166571D01*
X207589142Y-95166571D01*
X207446285Y-95095142D01*
X207374857Y-95023714D01*
X207303428Y-94880857D01*
X207232000Y-94595142D01*
X207232000Y-94238000D01*
X207303428Y-93952285D01*
X207374857Y-93809428D01*
X207446285Y-93738000D01*
X207589142Y-93666571D01*
X208517714Y-93666571D02*
X209017714Y-95166571D01*
X209517714Y-93666571D01*
X121436000Y-86046571D02*
X121721714Y-86046571D01*
X121864571Y-86118000D01*
X122007428Y-86260857D01*
X122078857Y-86546571D01*
X122078857Y-87046571D01*
X122007428Y-87332285D01*
X121864571Y-87475142D01*
X121721714Y-87546571D01*
X121436000Y-87546571D01*
X121293142Y-87475142D01*
X121150285Y-87332285D01*
X121078857Y-87046571D01*
X121078857Y-86546571D01*
X121150285Y-86260857D01*
X121293142Y-86118000D01*
X121436000Y-86046571D01*
X122721714Y-86046571D02*
X122721714Y-87260857D01*
X122793142Y-87403714D01*
X122864571Y-87475142D01*
X123007428Y-87546571D01*
X123293142Y-87546571D01*
X123436000Y-87475142D01*
X123507428Y-87403714D01*
X123578857Y-87260857D01*
X123578857Y-86046571D01*
X124078857Y-86046571D02*
X124936000Y-86046571D01*
X124507428Y-87546571D02*
X124507428Y-86046571D01*
X108434285Y-87546571D02*
X108434285Y-86046571D01*
X109148571Y-87546571D02*
X109148571Y-86046571D01*
X110005714Y-87546571D01*
X110005714Y-86046571D01*
X106108571Y-87991142D02*
X107251428Y-87991142D01*
X106680000Y-88562571D02*
X106680000Y-87419714D01*
X124904571Y-87991142D02*
X126047428Y-87991142D01*
X125476000Y-88562571D02*
X125476000Y-87419714D01*
X119824571Y-87991142D02*
X120967428Y-87991142D01*
X111188571Y-87991142D02*
X112331428Y-87991142D01*
X201866571Y-87991142D02*
X203009428Y-87991142D01*
X206946571Y-87991142D02*
X208089428Y-87991142D01*
X207518000Y-88562571D02*
X207518000Y-87419714D01*
D11*
%TO.P,C1,1*%
%TO.N,Net-(C1-Pad1)*%
X109474000Y-102108000D03*
D12*
%TO.P,C1,2*%
%TO.N,Net-(C1-Pad2)*%
X105674000Y-102108000D03*
%TD*%
D13*
%TO.P,C2,1*%
%TO.N,VDD*%
X152400000Y-92964000D03*
D14*
%TO.P,C2,2*%
%TO.N,Net-(C2-Pad2)*%
X152400000Y-89164000D03*
%TD*%
D13*
%TO.P,C3,1*%
%TO.N,Net-(C2-Pad2)*%
X164592000Y-92964000D03*
D14*
%TO.P,C3,2*%
%TO.N,GND*%
X164592000Y-89164000D03*
%TD*%
D12*
%TO.P,C4,2*%
%TO.N,Net-(C4-Pad2)*%
X183906000Y-114554000D03*
D11*
%TO.P,C4,1*%
%TO.N,Net-(C4-Pad1)*%
X187706000Y-114554000D03*
%TD*%
%TO.P,C5,1*%
%TO.N,VDD*%
X206502000Y-104394000D03*
D12*
%TO.P,C5,2*%
%TO.N,GND*%
X202702000Y-104394000D03*
%TD*%
D15*
%TO.P,C6,1*%
%TO.N,Net-(C6-Pad1)*%
X176784000Y-89916000D03*
%TO.P,C6,2*%
%TO.N,GND*%
X171784000Y-89916000D03*
%TD*%
D11*
%TO.P,C7,1*%
%TO.N,Net-(C7-Pad1)*%
X137922000Y-113030000D03*
D12*
%TO.P,C7,2*%
%TO.N,Net-(C7-Pad2)*%
X134122000Y-113030000D03*
%TD*%
D14*
%TO.P,C8,2*%
%TO.N,Net-(C8-Pad2)*%
X136144000Y-89164000D03*
D13*
%TO.P,C8,1*%
%TO.N,Net-(C7-Pad1)*%
X136144000Y-92964000D03*
%TD*%
D15*
%TO.P,C9,1*%
%TO.N,GND*%
X120730000Y-101600000D03*
%TO.P,C9,2*%
%TO.N,Net-(C10-Pad1)*%
X125730000Y-101600000D03*
%TD*%
D16*
%TO.P,C10,2*%
%TO.N,Net-(C10-Pad2)*%
X150368000Y-102536000D03*
D17*
%TO.P,C10,1*%
%TO.N,Net-(C10-Pad1)*%
X150368000Y-97536000D03*
%TD*%
D15*
%TO.P,C11,1*%
%TO.N,GND*%
X120730000Y-97790000D03*
%TO.P,C11,2*%
%TO.N,Net-(C11-Pad2)*%
X125730000Y-97790000D03*
%TD*%
D18*
%TO.P,C12,2*%
%TO.N,Net-(C12-Pad2)*%
X153924000Y-102616000D03*
D17*
%TO.P,C12,1*%
%TO.N,Net-(C11-Pad2)*%
X153924000Y-97616000D03*
%TD*%
D19*
%TO.P,C13,1*%
%TO.N,GND*%
X133430000Y-98806000D03*
%TO.P,C13,2*%
%TO.N,Net-(C13-Pad2)*%
X138430000Y-98806000D03*
%TD*%
%TO.P,C14,2*%
%TO.N,Net-(C14-Pad2)*%
X153924000Y-105410000D03*
D18*
%TO.P,C14,1*%
%TO.N,Net-(C13-Pad2)*%
X153924000Y-110410000D03*
%TD*%
D19*
%TO.P,C15,1*%
%TO.N,GND*%
X133430000Y-102616000D03*
%TO.P,C15,2*%
%TO.N,Net-(C15-Pad2)*%
X138430000Y-102616000D03*
%TD*%
%TO.P,C16,2*%
%TO.N,Net-(C16-Pad2)*%
X150368000Y-105410000D03*
D18*
%TO.P,C16,1*%
%TO.N,Net-(C15-Pad2)*%
X150368000Y-110410000D03*
%TD*%
D17*
%TO.P,C17,2*%
%TO.N,Net-(C17-Pad2)*%
X157734000Y-112522000D03*
%TO.P,C17,1*%
%TO.N,Net-(C17-Pad1)*%
X162734000Y-112522000D03*
%TD*%
%TO.P,J1,1*%
%TO.N,GND*%
%TA.AperFunction,ComponentPad*%
G36*
G01*
X113760000Y-89711000D02*
X113760000Y-92153000D01*
G75*
G02*
X113481000Y-92432000I-279000J0D01*
G01*
X110039000Y-92432000D01*
G75*
G02*
X109760000Y-92153000I0J279000D01*
G01*
X109760000Y-89711000D01*
G75*
G02*
X110039000Y-89432000I279000J0D01*
G01*
X113481000Y-89432000D01*
G75*
G02*
X113760000Y-89711000I0J-279000D01*
G01*
G37*
%TD.AperFunction*%
D20*
%TO.P,J1,2*%
%TO.N,Net-(C1-Pad1)*%
X106760000Y-90932000D03*
%TD*%
%TO.P,J2,1*%
%TO.N,VDD*%
%TA.AperFunction,ComponentPad*%
G36*
G01*
X209518000Y-89711000D02*
X209518000Y-92153000D01*
G75*
G02*
X209239000Y-92432000I-279000J0D01*
G01*
X205797000Y-92432000D01*
G75*
G02*
X205518000Y-92153000I0J279000D01*
G01*
X205518000Y-89711000D01*
G75*
G02*
X205797000Y-89432000I279000J0D01*
G01*
X209239000Y-89432000D01*
G75*
G02*
X209518000Y-89711000I0J-279000D01*
G01*
G37*
%TD.AperFunction*%
%TO.P,J2,2*%
%TO.N,GND*%
X202518000Y-90932000D03*
%TD*%
%TO.P,J3,2*%
%TO.N,GND*%
X120476000Y-90932000D03*
%TO.P,J3,1*%
%TO.N,Net-(C8-Pad2)*%
%TA.AperFunction,ComponentPad*%
G36*
G01*
X127476000Y-89711000D02*
X127476000Y-92153000D01*
G75*
G02*
X127197000Y-92432000I-279000J0D01*
G01*
X123755000Y-92432000D01*
G75*
G02*
X123476000Y-92153000I0J279000D01*
G01*
X123476000Y-89711000D01*
G75*
G02*
X123755000Y-89432000I279000J0D01*
G01*
X127197000Y-89432000D01*
G75*
G02*
X127476000Y-89711000I0J-279000D01*
G01*
G37*
%TD.AperFunction*%
%TD*%
D21*
%TO.P,J4,1*%
%TO.N,GND*%
X195072000Y-93472000D03*
%TD*%
D22*
%TO.P,R1,1*%
%TO.N,Net-(C1-Pad2)*%
X180086000Y-93472000D03*
%TO.P,R1,2*%
%TO.N,Net-(R1-Pad2)*%
X190246000Y-93472000D03*
%TD*%
%TO.P,R2,2*%
%TO.N,Net-(C4-Pad1)*%
X193548000Y-107442000D03*
%TO.P,R2,1*%
%TO.N,Net-(R1-Pad2)*%
X193548000Y-97282000D03*
%TD*%
%TO.P,R3,2*%
%TO.N,Net-(C2-Pad2)*%
X199390000Y-112522000D03*
%TO.P,R3,1*%
%TO.N,VDD*%
X209550000Y-112522000D03*
%TD*%
%TO.P,R4,2*%
%TO.N,GND*%
X209550000Y-116586000D03*
%TO.P,R4,1*%
%TO.N,Net-(C2-Pad2)*%
X199390000Y-116586000D03*
%TD*%
D23*
%TO.P,R5,3*%
%TO.N,Net-(C4-Pad2)*%
X116934000Y-127000000D03*
%TO.P,R5,2*%
%TO.N,Net-(R13-Pad1)*%
X111934000Y-127000000D03*
%TO.P,R5,1*%
%TO.N,Net-(C6-Pad1)*%
X106934000Y-127000000D03*
%TD*%
%TO.P,R6,1*%
%TO.N,Net-(C6-Pad1)*%
X129286000Y-127000000D03*
%TO.P,R6,2*%
%TO.N,Net-(R15-Pad1)*%
X134286000Y-127000000D03*
%TO.P,R6,3*%
%TO.N,Net-(C4-Pad2)*%
X139286000Y-127000000D03*
%TD*%
%TO.P,R7,3*%
%TO.N,Net-(C4-Pad2)*%
X161638000Y-127000000D03*
%TO.P,R7,2*%
%TO.N,Net-(R17-Pad1)*%
X156638000Y-127000000D03*
%TO.P,R7,1*%
%TO.N,Net-(C6-Pad1)*%
X151638000Y-127000000D03*
%TD*%
%TO.P,R8,1*%
%TO.N,Net-(C6-Pad1)*%
X173990000Y-127000000D03*
%TO.P,R8,2*%
%TO.N,Net-(R19-Pad1)*%
X178990000Y-127000000D03*
%TO.P,R8,3*%
%TO.N,Net-(C4-Pad2)*%
X183990000Y-127000000D03*
%TD*%
%TO.P,R9,3*%
%TO.N,Net-(C4-Pad2)*%
X206342000Y-127000000D03*
%TO.P,R9,2*%
%TO.N,Net-(C17-Pad1)*%
X201342000Y-127000000D03*
%TO.P,R9,1*%
%TO.N,Net-(C6-Pad1)*%
X196342000Y-127000000D03*
%TD*%
D22*
%TO.P,R10,1*%
%TO.N,Net-(C7-Pad2)*%
X121666000Y-112522000D03*
%TO.P,R10,2*%
%TO.N,Net-(C6-Pad1)*%
X111506000Y-112522000D03*
%TD*%
%TO.P,R11,2*%
%TO.N,Net-(C6-Pad1)*%
X180086000Y-89916000D03*
%TO.P,R11,1*%
%TO.N,GND*%
X190246000Y-89916000D03*
%TD*%
D24*
%TO.P,R12,2*%
%TO.N,Net-(C7-Pad1)*%
X176784000Y-108966000D03*
%TO.P,R12,1*%
%TO.N,Net-(R12-Pad1)*%
X176784000Y-98806000D03*
%TD*%
D22*
%TO.P,R13,1*%
%TO.N,Net-(R13-Pad1)*%
X116586000Y-108966000D03*
%TO.P,R13,2*%
%TO.N,Net-(C10-Pad1)*%
X116586000Y-98806000D03*
%TD*%
D24*
%TO.P,R14,2*%
%TO.N,Net-(R12-Pad1)*%
X172974000Y-98806000D03*
%TO.P,R14,1*%
%TO.N,Net-(C10-Pad2)*%
X172974000Y-108966000D03*
%TD*%
D22*
%TO.P,R15,1*%
%TO.N,Net-(R15-Pad1)*%
X130048000Y-108966000D03*
D24*
%TO.P,R15,2*%
%TO.N,Net-(C11-Pad2)*%
X130048000Y-98806000D03*
%TD*%
%TO.P,R16,1*%
%TO.N,Net-(C12-Pad2)*%
X169164000Y-108966000D03*
%TO.P,R16,2*%
%TO.N,Net-(R12-Pad1)*%
X169164000Y-98806000D03*
%TD*%
D19*
%TO.P,R17,2*%
%TO.N,Net-(C13-Pad2)*%
X141986000Y-98806000D03*
D25*
%TO.P,R17,1*%
%TO.N,Net-(R17-Pad1)*%
X141986000Y-108966000D03*
%TD*%
D24*
%TO.P,R18,1*%
%TO.N,Net-(C14-Pad2)*%
X165379001Y-108966000D03*
%TO.P,R18,2*%
%TO.N,Net-(R12-Pad1)*%
X165379001Y-98806000D03*
%TD*%
D17*
%TO.P,R19,1*%
%TO.N,Net-(R19-Pad1)*%
X146558000Y-108966000D03*
D19*
%TO.P,R19,2*%
%TO.N,Net-(C15-Pad2)*%
X146558000Y-98806000D03*
%TD*%
D24*
%TO.P,R20,1*%
%TO.N,Net-(C16-Pad2)*%
X161544000Y-108966000D03*
%TO.P,R20,2*%
%TO.N,Net-(R12-Pad1)*%
X161544000Y-98806000D03*
%TD*%
%TO.P,R21,2*%
%TO.N,Net-(R12-Pad1)*%
X157734000Y-98806000D03*
%TO.P,R21,1*%
%TO.N,Net-(C17-Pad2)*%
X157734000Y-108966000D03*
%TD*%
D26*
%TO.P,U1,1*%
%TO.N,Net-(C4-Pad1)*%
X189738000Y-107442000D03*
D27*
%TO.P,U1,5*%
%TO.N,Net-(C2-Pad2)*%
X182118000Y-99822000D03*
%TO.P,U1,2*%
%TO.N,Net-(R1-Pad2)*%
X189738000Y-104902000D03*
%TO.P,U1,6*%
%TO.N,Net-(R12-Pad1)*%
X182118000Y-102362000D03*
%TO.P,U1,3*%
%TO.N,Net-(C2-Pad2)*%
X189738000Y-102362000D03*
%TO.P,U1,7*%
%TO.N,Net-(C7-Pad1)*%
X182118000Y-104902000D03*
%TO.P,U1,4*%
%TO.N,GND*%
X189738000Y-99822000D03*
%TO.P,U1,8*%
%TO.N,VDD*%
X182118000Y-107442000D03*
%TD*%
D28*
%TO.N,*%
X212852000Y-84074000D03*
X212852000Y-129540000D03*
X105664000Y-112522000D03*
X102108000Y-84074000D03*
X126619000Y-112522000D03*
D29*
%TO.N,Net-(C1-Pad2)*%
X113284000Y-97790000D03*
X174498000Y-93472000D03*
%TO.N,Net-(C4-Pad2)*%
X176784000Y-118872000D03*
X167894000Y-118872000D03*
X193294000Y-118618000D03*
X123190000Y-124460000D03*
X145288000Y-124460000D03*
X167894000Y-124460000D03*
X190500000Y-124460000D03*
X206342000Y-122776000D03*
%TO.N,Net-(C10-Pad1)*%
X123190000Y-104140000D03*
%TO.N,VDD*%
X207518000Y-97536000D03*
X144526000Y-92964000D03*
%TO.N,Net-(C6-Pad1)*%
X212090000Y-122682000D03*
X185674000Y-96266000D03*
%TO.N,Net-(C7-Pad1)*%
X129794000Y-92964000D03*
X176784000Y-114808000D03*
X150368000Y-115062000D03*
X141986000Y-116586000D03*
%TO.N,Net-(C11-Pad2)*%
X144272000Y-97028000D03*
X128016000Y-97790000D03*
%TO.N,Net-(R1-Pad2)*%
X196850000Y-97282000D03*
X196850000Y-104902000D03*
%TO.N,Net-(R17-Pad1)*%
X156638000Y-116840000D03*
X138430000Y-105918000D03*
%TO.N,Net-(R19-Pad1)*%
X179070000Y-124460000D03*
X146558000Y-105156000D03*
%TD*%
D30*
%TO.N,Net-(C1-Pad2)*%
X174498000Y-93472000D02*
X174498000Y-94996000D01*
X113284000Y-95504000D02*
X113284000Y-95226010D01*
X113284000Y-95504000D02*
X113284000Y-97790000D01*
X174498000Y-94996000D02*
X113284000Y-94996000D01*
%TO.N,Net-(C4-Pad2)*%
X189992000Y-118872000D02*
X190500000Y-118872000D01*
X176784000Y-118872000D02*
X189992000Y-118872000D01*
X189992000Y-118872000D02*
X190246000Y-119126000D01*
X190246000Y-119126000D02*
X190500000Y-118872000D01*
X190500000Y-118872000D02*
X193040000Y-118872000D01*
X193040000Y-118872000D02*
X193294000Y-118618000D01*
X123190000Y-118872000D02*
X145288000Y-118872000D01*
X145288000Y-118872000D02*
X167894000Y-118872000D01*
X167894000Y-124460000D02*
X167894000Y-118872000D01*
X190500000Y-124206000D02*
X190246000Y-124460000D01*
X123190000Y-118872000D02*
X123190000Y-124460000D01*
X145288000Y-124460000D02*
X145288000Y-118872000D01*
X190500000Y-122682000D02*
X206248000Y-122682000D01*
X190500000Y-118872000D02*
X190500000Y-122682000D01*
X190500000Y-122682000D02*
X190500000Y-124206000D01*
%TO.N,Net-(C10-Pad1)*%
X128016000Y-104140000D02*
X123190000Y-104140000D01*
X128016000Y-100628002D02*
X128016000Y-104140000D01*
X128038001Y-100606001D02*
X128016000Y-100628002D01*
X150368000Y-100584000D02*
X147444002Y-100584000D01*
X147444002Y-100584000D02*
X147422001Y-100606001D01*
X147422001Y-100606001D02*
X128038001Y-100606001D01*
X150368000Y-97536000D02*
X150368000Y-100584000D01*
%TO.N,VDD*%
X207518000Y-97536000D02*
X199136000Y-97536000D01*
X199136000Y-97536000D02*
X199136000Y-86614000D01*
X198882000Y-86360000D02*
X199136000Y-86614000D01*
X144526000Y-86360000D02*
X198882000Y-86360000D01*
X144526000Y-92964000D02*
X144526000Y-86360000D01*
%TO.N,Net-(C6-Pad1)*%
X185674000Y-111506000D02*
X185674000Y-96266000D01*
X196342000Y-111506000D02*
X185674000Y-111506000D01*
X196342000Y-119126000D02*
X196342000Y-111506000D01*
X212090000Y-119126000D02*
X196342000Y-119126000D01*
X212090000Y-119126000D02*
X212090000Y-122682000D01*
%TO.N,Net-(C7-Pad1)*%
X150368000Y-115062000D02*
X150598009Y-114831991D01*
X150598009Y-114808000D02*
X176553991Y-114808000D01*
X101092000Y-93472000D02*
X130048000Y-93472000D01*
X101092000Y-116840000D02*
X101092000Y-93472000D01*
X141732000Y-116840000D02*
X101092000Y-116840000D01*
X141986000Y-116586000D02*
X141732000Y-116840000D01*
%TO.N,Net-(C11-Pad2)*%
X144248010Y-96750010D02*
X144272000Y-96774000D01*
X130325990Y-96750010D02*
X144248010Y-96750010D01*
X128016000Y-96774000D02*
X130302000Y-96774000D01*
X130302000Y-96774000D02*
X130325990Y-96750010D01*
X128016000Y-97790000D02*
X128016000Y-96774000D01*
%TO.N,Net-(R1-Pad2)*%
X196850000Y-104902000D02*
X196850000Y-97282000D01*
%TO.N,Net-(R17-Pad1)*%
X156558000Y-117094000D02*
X144272000Y-117094000D01*
X144272000Y-116840000D02*
X144272000Y-105918000D01*
X144272000Y-105918000D02*
X138430000Y-105918000D01*
%TO.N,Net-(R19-Pad1)*%
X179070000Y-123952000D02*
X179070000Y-124460000D01*
X146558000Y-105156000D02*
X146558000Y-107188000D01*
X159179597Y-107165999D02*
X179301999Y-107165999D01*
X146558000Y-107188000D02*
X146580001Y-107210001D01*
X179324000Y-116840000D02*
X171958000Y-116840000D01*
X146580001Y-107210001D02*
X156244401Y-107210001D01*
X179301999Y-107165999D02*
X179324000Y-107188000D01*
X156244401Y-107210001D02*
X156288412Y-107165990D01*
X156288412Y-107165990D02*
X159179588Y-107165990D01*
X171958000Y-122174000D02*
X179070000Y-122174000D01*
X159179588Y-107165990D02*
X159179597Y-107165999D01*
X179324000Y-107188000D02*
X179324000Y-116840000D01*
X171958000Y-116840000D02*
X171958000Y-122174000D01*
X179070000Y-122174000D02*
X179070000Y-123952000D01*
%TD*%
M02*
